# xmcd
#
# Track frame offsets: 
#        150
#        14600
#        29269
#        43877
#        57973
#        73519
#        89484
#        128363
#        143248
#        155884
#        167025
#        178276
#        194366
#        208836
#        224660
#        240044
#
# Disc length: 3410 seconds
#
# Revision: 3
# Processed by: cddbd v1.5.2PL0 Copyright (c) Steve Scherf et al.
# Submitted via: ExactAudioCopyFreeDBPlugin 1.0
#
DISCID=ef0d5010
DTITLE=Various Artist - RCA SWING!100 CD1　スタンダードⅠ
DYEAR=2006
DGENRE=Jazz
TTITLE0=ニュー・グレン・ミラー楽団 - イン・ザ・ムード
TTITLE1=ニュー・グレン・ミラー楽団 - ムーンライト・セレナーデ
TTITLE2=ニュー・グレン・ミラー楽団 - 真珠の首飾り
TTITLE3=ニュー・グレン・ミラー楽団 - 茶色の小瓶
TTITLE4=ニュー・グレン・ミラー楽団 - アメリカン・パトロール
TTITLE5=ニュー・グレン・ミラー楽団 - タキシード・ジャンクション
TTITLE6=ベニー・グッドマン楽団 - シング・シング・シング
TTITLE7=ベニー・グッドマン楽団 - その手はないよ
TTITLE8=ベニー・グッドマン楽団 - サヴォイでストンプ
TTITLE9=ベニー・グッドマン楽団 - グディ・グディ
TTITLE10=トミー・ドーシー楽団 - 故郷の空
TTITLE11=トミー・ドーシー楽団 - センチになって
TTITLE12=アーティ・ショウ楽団 - ビギン・ザ・ビギン
TTITLE13=アーティ・ショウ楽団 - スターダスト
TTITLE14=チャーリー・バーネット楽団 - チェロキー
TTITLE15=チャーリー・バーネット - イパネマの娘
EXTD=
EXTT0=
EXTT1=
EXTT2=
EXTT3=
EXTT4=
EXTT5=
EXTT6=
EXTT7=
EXTT8=
EXTT9=
EXTT10=
EXTT11=
EXTT12=
EXTT13=
EXTT14=
EXTT15=
PLAYORDER=
